<?xml version="1.0" encoding="utf-8"?>
<svg viewBox="0 0 24 24" xmlns="http://www.w3.org/2000/svg">
  <path d="M10.1011 2.3961C10.5777 1.77363 11.1669 1.25 12 1.25C12.8331 1.25 13.4223 1.77363 13.899 2.3961C14.3674 3.00773 14.864 3.89876 15.471 4.98776L15.8296 5.63106C16.2222 6.33523 16.3226 6.48482 16.4486 6.58044C16.5698 6.67247 16.7262 6.7238 17.4896 6.89654L18.1897 7.05492C19.3653 7.32088 20.3338 7.53999 21.0392 7.81796C21.7714 8.10651 22.4121 8.5318 22.6588 9.32502C22.9029 10.1101 22.6285 10.8323 22.2045 11.5059C21.7925 12.1604 21.1344 12.9298 20.3306 13.8698L19.8561 14.4247C19.3391 15.0292 19.2311 15.1772 19.1803 15.3404C19.1286 15.5069 19.1334 15.6992 19.2115 16.5052L19.2831 17.2433C19.4048 18.4994 19.5041 19.5236 19.4693 20.3037C19.434 21.0977 19.2536 21.8601 18.5984 22.3576C17.9308 22.8643 17.1542 22.8072 16.4044 22.5924C15.6774 22.3841 14.7711 21.9667 13.6705 21.46L13.0149 21.1581C12.2975 20.8278 12.1439 20.7748 12 20.7748C11.8561 20.7748 11.7025 20.8278 10.9852 21.1581L10.3295 21.46C9.22898 21.9667 8.32265 22.3841 7.59565 22.5924C6.84587 22.8072 6.0692 22.8643 5.40168 22.3576C4.7464 21.8601 4.56607 21.0977 4.5307 20.3037C4.49595 19.5236 4.59523 18.4993 4.71697 17.2433L4.7885 16.5052C4.8666 15.6992 4.87147 15.5069 4.81971 15.3404C4.76894 15.1772 4.66094 15.0292 4.14393 14.4247L3.66945 13.8698C2.8656 12.9299 2.20753 12.1604 1.79553 11.5059C1.37149 10.8323 1.09714 10.1101 1.34127 9.32502C1.58794 8.5318 2.22867 8.10651 2.96086 7.81796C3.66622 7.53999 4.63474 7.32088 5.81038 7.05492L5.87404 7.04052L6.51039 6.89654C7.27382 6.72381 7.43023 6.67247 7.55148 6.58044C7.67743 6.48482 7.77785 6.33523 8.17039 5.63106L8.52899 4.98775C9.13601 3.89876 9.63268 3.00773 10.1011 2.3961Z" fill="black"/>
</svg>
