<?xml version="1.0" encoding="utf-8"?>
<svg width="800px" height="800px" viewBox="0 0 24 24" fill="black" xmlns="http://www.w3.org/2000/svg"><path d="M11.292 3.30809C10.8982 3.82224 10.4538 4.61551 9.80827 5.77355L9.48057 6.36141C9.46082 6.39684 9.44132 6.43194 9.42201 6.4667C9.12127 7.0079 8.86745 7.46469 8.45844 7.77518C8.04503 8.08901 7.54106 8.20227 6.95535 8.3339C6.91771 8.34235 6.87973 8.35089 6.84141 8.35956L6.20506 8.50354C4.94974 8.78757 4.09576 8.98299 3.51082 9.21351C2.94002 9.43845 2.81953 9.62275 2.77361 9.77044C2.72514 9.9263 2.7237 10.1647 3.06494 10.7068C3.41129 11.257 3.99558 11.9432 4.85011 12.9425L5.28393 13.4498C5.30914 13.4793 5.33413 13.5084 5.35886 13.5373C5.76188 14.0074 6.09791 14.3993 6.25205 14.895C6.40526 15.3877 6.35448 15.9054 6.29291 16.5331C6.28913 16.5716 6.28532 16.6105 6.2815 16.6499L6.21591 17.3267C6.08682 18.6589 5.99978 19.5762 6.02922 20.2369C6.05859 20.8965 6.1979 21.0788 6.30865 21.1628C6.40716 21.2376 6.58925 21.3204 7.18248 21.1504C7.78535 20.9777 8.58659 20.6111 9.76202 20.0699L10.3578 19.7956C10.3945 19.7787 10.4309 19.7619 10.4669 19.7452C11.0117 19.4934 11.4843 19.2748 12 19.2748C12.5157 19.2748 12.9883 19.4934 13.5331 19.7452C13.5692 19.7619 13.6055 19.7787 13.6422 19.7956L14.238 20.0699C15.4134 20.6111 16.2147 20.9777 16.8176 21.1504C17.4108 21.3204 17.5929 21.2376 17.6914 21.1628C17.8021 21.0788 17.9414 20.8965 17.9708 20.2369C18.0002 19.5762 17.9132 18.6589 17.7841 17.3267L17.7185 16.6499C17.7147 16.6105 17.7109 16.5716 17.7071 16.5331C17.6456 15.9054 17.5948 15.3877 17.748 14.895C17.9021 14.3993 18.2382 14.0074 18.6412 13.5372C18.6659 13.5084 18.6909 13.4793 18.7161 13.4498L19.1499 12.9425C20.0044 11.9432 20.5887 11.257 20.9351 10.7068C21.2763 10.1647 21.2749 9.9263 21.2264 9.77044C21.1805 9.62275 21.06 9.43845 20.4892 9.21351C19.9043 8.98299 19.0503 8.78757 17.795 8.50354L17.1586 8.35956C17.1203 8.35089 17.0823 8.34235 17.0447 8.33389C16.459 8.20227 15.955 8.08901 15.5416 7.77518C15.1326 7.46469 14.8788 7.0079 14.578 6.4667C14.5587 6.43194 14.5392 6.39684 14.5195 6.36141L14.1918 5.77355C13.5462 4.61551 13.1018 3.82224 12.7081 3.30809C12.3147 2.79443 12.1138 2.75 12 2.75C11.8863 2.75 11.6853 2.79443 11.292 3.30809Z" fill="black"/>
</svg>
